<?xml version="1.0" encoding="utf-8" standalone="no"?>
<!DOCTYPE svg PUBLIC "-//W3C//DTD SVG 1.1//EN"
  "http://www.w3.org/Graphics/SVG/1.1/DTD/svg11.dtd">
<svg xmlns:xlink="http://www.w3.org/1999/xlink" width="576pt" height="576pt" viewBox="0 0 576 576" xmlns="http://www.w3.org/2000/svg" version="1.1">
 <metadata>
  <rdf:RDF xmlns:dc="http://purl.org/dc/elements/1.1/" xmlns:cc="http://creativecommons.org/ns#" xmlns:rdf="http://www.w3.org/1999/02/22-rdf-syntax-ns#">
   <cc:Work>
    <dc:type rdf:resource="http://purl.org/dc/dcmitype/StillImage"/>
    <dc:date>2023-08-29T15:19:16.610213</dc:date>
    <dc:format>image/svg+xml</dc:format>
    <dc:creator>
     <cc:Agent>
      <dc:title>Matplotlib v3.7.1, https://matplotlib.org/</dc:title>
     </cc:Agent>
    </dc:creator>
   </cc:Work>
  </rdf:RDF>
 </metadata>
 <defs>
  <style type="text/css">*{stroke-linejoin: round; stroke-linecap: butt}</style>
 </defs>
 <g id="figure_1">
  <g id="patch_1">
   <path d="M 0 576 
L 576 576 
L 576 0 
L 0 0 
z
" style="fill: #ffffff"/>
  </g>
  <g id="axes_1">
   <g id="patch_2">
    <path d="M 72 512.64 
L 518.4 512.64 
L 518.4 69.12 
L 72 69.12 
z
" style="fill: #ffffff"/>
   </g>
   <g id="matplotlib.axis_1">
    <g id="xtick_1">
     <g id="line2d_1">
      <path d="M 141.348381 512.64 
L 141.348381 69.12 
" clip-path="url(#pfc179baf15)" style="fill: none; stroke: #000000; stroke-width: 0.8; stroke-linecap: square"/>
     </g>
     <g id="line2d_2">
      <defs>
       <path id="m39150ac4ea" d="M 0 0 
L 0 3.5 
" style="stroke: #000000; stroke-width: 0.8"/>
      </defs>
      <g>
       <use xlink:href="#m39150ac4ea" x="141.348381" y="512.64" style="stroke: #000000; stroke-width: 0.8"/>
      </g>
     </g>
    </g>
    <g id="xtick_2">
     <g id="line2d_3">
      <path d="M 215.700516 512.64 
L 215.700516 69.12 
" clip-path="url(#pfc179baf15)" style="fill: none; stroke: #000000; stroke-width: 0.8; stroke-linecap: square"/>
     </g>
     <g id="line2d_4">
      <g>
       <use xlink:href="#m39150ac4ea" x="215.700516" y="512.64" style="stroke: #000000; stroke-width: 0.8"/>
      </g>
     </g>
    </g>
    <g id="xtick_3">
     <g id="line2d_5">
      <path d="M 290.05265 512.64 
L 290.05265 69.12 
" clip-path="url(#pfc179baf15)" style="fill: none; stroke: #000000; stroke-width: 0.8; stroke-linecap: square"/>
     </g>
     <g id="line2d_6">
      <g>
       <use xlink:href="#m39150ac4ea" x="290.05265" y="512.64" style="stroke: #000000; stroke-width: 0.8"/>
      </g>
     </g>
    </g>
    <g id="xtick_4">
     <g id="line2d_7">
      <path d="M 364.404785 512.64 
L 364.404785 69.12 
" clip-path="url(#pfc179baf15)" style="fill: none; stroke: #000000; stroke-width: 0.8; stroke-linecap: square"/>
     </g>
     <g id="line2d_8">
      <g>
       <use xlink:href="#m39150ac4ea" x="364.404785" y="512.64" style="stroke: #000000; stroke-width: 0.8"/>
      </g>
     </g>
    </g>
    <g id="xtick_5">
     <g id="line2d_9">
      <path d="M 438.75692 512.64 
L 438.75692 69.12 
" clip-path="url(#pfc179baf15)" style="fill: none; stroke: #000000; stroke-width: 0.8; stroke-linecap: square"/>
     </g>
     <g id="line2d_10">
      <g>
       <use xlink:href="#m39150ac4ea" x="438.75692" y="512.64" style="stroke: #000000; stroke-width: 0.8"/>
      </g>
     </g>
    </g>
    <g id="xtick_6">
     <g id="line2d_11">
      <path d="M 513.109055 512.64 
L 513.109055 69.12 
" clip-path="url(#pfc179baf15)" style="fill: none; stroke: #000000; stroke-width: 0.8; stroke-linecap: square"/>
     </g>
     <g id="line2d_12">
      <g>
       <use xlink:href="#m39150ac4ea" x="513.109055" y="512.64" style="stroke: #000000; stroke-width: 0.8"/>
      </g>
     </g>
    </g>
   </g>
   <g id="matplotlib.axis_2">
    <g id="ytick_1">
     <g id="line2d_13">
      <path d="M 72 442.921761 
L 518.4 442.921761 
" clip-path="url(#pfc179baf15)" style="fill: none; stroke: #000000; stroke-width: 0.8; stroke-linecap: square"/>
     </g>
     <g id="line2d_14">
      <defs>
       <path id="mff6c8b1ec6" d="M 0 0 
L -3.5 0 
" style="stroke: #000000; stroke-width: 0.8"/>
      </defs>
      <g>
       <use xlink:href="#mff6c8b1ec6" x="72" y="442.921761" style="stroke: #000000; stroke-width: 0.8"/>
      </g>
     </g>
    </g>
    <g id="ytick_2">
     <g id="line2d_15">
      <path d="M 72 369.439398 
L 518.4 369.439398 
" clip-path="url(#pfc179baf15)" style="fill: none; stroke: #000000; stroke-width: 0.8; stroke-linecap: square"/>
     </g>
     <g id="line2d_16">
      <g>
       <use xlink:href="#mff6c8b1ec6" x="72" y="369.439398" style="stroke: #000000; stroke-width: 0.8"/>
      </g>
     </g>
    </g>
    <g id="ytick_3">
     <g id="line2d_17">
      <path d="M 72 295.957035 
L 518.4 295.957035 
" clip-path="url(#pfc179baf15)" style="fill: none; stroke: #000000; stroke-width: 0.8; stroke-linecap: square"/>
     </g>
     <g id="line2d_18">
      <g>
       <use xlink:href="#mff6c8b1ec6" x="72" y="295.957035" style="stroke: #000000; stroke-width: 0.8"/>
      </g>
     </g>
    </g>
    <g id="ytick_4">
     <g id="line2d_19">
      <path d="M 72 222.474671 
L 518.4 222.474671 
" clip-path="url(#pfc179baf15)" style="fill: none; stroke: #000000; stroke-width: 0.8; stroke-linecap: square"/>
     </g>
     <g id="line2d_20">
      <g>
       <use xlink:href="#mff6c8b1ec6" x="72" y="222.474671" style="stroke: #000000; stroke-width: 0.8"/>
      </g>
     </g>
    </g>
    <g id="ytick_5">
     <g id="line2d_21">
      <path d="M 72 148.992308 
L 518.4 148.992308 
" clip-path="url(#pfc179baf15)" style="fill: none; stroke: #000000; stroke-width: 0.8; stroke-linecap: square"/>
     </g>
     <g id="line2d_22">
      <g>
       <use xlink:href="#mff6c8b1ec6" x="72" y="148.992308" style="stroke: #000000; stroke-width: 0.8"/>
      </g>
     </g>
    </g>
    <g id="ytick_6">
     <g id="line2d_23">
      <path d="M 72 75.509944 
L 518.4 75.509944 
" clip-path="url(#pfc179baf15)" style="fill: none; stroke: #000000; stroke-width: 0.8; stroke-linecap: square"/>
     </g>
     <g id="line2d_24">
      <g>
       <use xlink:href="#mff6c8b1ec6" x="72" y="75.509944" style="stroke: #000000; stroke-width: 0.8"/>
      </g>
     </g>
    </g>
   </g>
   <g id="PathCollection_1">
    <defs>
     <path id="C0_0_c6a66ad2a9" d="M 0 3.872983 
C 1.027127 3.872983 2.012324 3.464901 2.738613 2.738613 
C 3.464901 2.012324 3.872983 1.027127 3.872983 -0 
C 3.872983 -1.027127 3.464901 -2.012324 2.738613 -2.738613 
C 2.012324 -3.464901 1.027127 -3.872983 0 -3.872983 
C -1.027127 -3.872983 -2.012324 -3.464901 -2.738613 -2.738613 
C -3.464901 -2.012324 -3.872983 -1.027127 -3.872983 0 
C -3.872983 1.027127 -3.464901 2.012324 -2.738613 2.738613 
C -2.012324 3.464901 -1.027127 3.872983 0 3.872983 
z
"/>
    </defs>
    <g clip-path="url(#pfc179baf15)">
     <use xlink:href="#C0_0_c6a66ad2a9" x="339.289264" y="130.356525" style="fill: #ff0000; stroke: #ff0000"/>
    </g>
    <g clip-path="url(#pfc179baf15)">
     <use xlink:href="#C0_0_c6a66ad2a9" x="357.85977" y="135.584943" style="fill: #ff1f00; stroke: #ff1f00"/>
    </g>
    <g clip-path="url(#pfc179baf15)">
     <use xlink:href="#C0_0_c6a66ad2a9" x="295.076594" y="134.840954" style="fill: #ff3d00; stroke: #ff3d00"/>
    </g>
    <g clip-path="url(#pfc179baf15)">
     <use xlink:href="#C0_0_c6a66ad2a9" x="312.188844" y="107.516259" style="fill: #ff5c00; stroke: #ff5c00"/>
    </g>
    <g clip-path="url(#pfc179baf15)">
     <use xlink:href="#C0_0_c6a66ad2a9" x="312.635812" y="89.28" style="fill: #ff7a00; stroke: #ff7a00"/>
    </g>
    <g clip-path="url(#pfc179baf15)">
     <use xlink:href="#C0_0_c6a66ad2a9" x="338.562927" y="105.098575" style="fill: #ff9900; stroke: #ff9900"/>
    </g>
    <g clip-path="url(#pfc179baf15)">
     <use xlink:href="#C0_0_c6a66ad2a9" x="371.099758" y="139.663751" style="fill: #ffb800; stroke: #ffb800"/>
    </g>
    <g clip-path="url(#pfc179baf15)">
     <use xlink:href="#C0_0_c6a66ad2a9" x="322.114996" y="135.996192" style="fill: #ffd600; stroke: #ffd600"/>
    </g>
    <g clip-path="url(#pfc179baf15)">
     <use xlink:href="#C0_0_c6a66ad2a9" x="357.434734" y="171.152479" style="fill: #fff500; stroke: #fff500"/>
    </g>
    <g clip-path="url(#pfc179baf15)">
     <use xlink:href="#C0_0_c6a66ad2a9" x="323.700238" y="149.647166" style="fill: #ebff00; stroke: #ebff00"/>
    </g>
    <g clip-path="url(#pfc179baf15)">
     <use xlink:href="#C0_0_c6a66ad2a9" x="455.279691" y="357.652928" style="fill: #ccff00; stroke: #ccff00"/>
    </g>
    <g clip-path="url(#pfc179baf15)">
     <use xlink:href="#C0_0_c6a66ad2a9" x="471.926405" y="359.742048" style="fill: #adff00; stroke: #adff00"/>
    </g>
    <g clip-path="url(#pfc179baf15)">
     <use xlink:href="#C0_0_c6a66ad2a9" x="498.109091" y="328.847346" style="fill: #8fff00; stroke: #8fff00"/>
    </g>
    <g clip-path="url(#pfc179baf15)">
     <use xlink:href="#C0_0_c6a66ad2a9" x="447.75315" y="400.813173" style="fill: #70ff00; stroke: #70ff00"/>
    </g>
    <g clip-path="url(#pfc179baf15)">
     <use xlink:href="#C0_0_c6a66ad2a9" x="483.447207" y="370.87524" style="fill: #52ff00; stroke: #52ff00"/>
    </g>
    <g clip-path="url(#pfc179baf15)">
     <use xlink:href="#C0_0_c6a66ad2a9" x="494.742266" y="336.02736" style="fill: #33ff00; stroke: #33ff00"/>
    </g>
    <g clip-path="url(#pfc179baf15)">
     <use xlink:href="#C0_0_c6a66ad2a9" x="469.783298" y="392.266143" style="fill: #14ff00; stroke: #14ff00"/>
    </g>
    <g clip-path="url(#pfc179baf15)">
     <use xlink:href="#C0_0_c6a66ad2a9" x="486.352399" y="401.313906" style="fill: #00ff0a; stroke: #00ff0a"/>
    </g>
    <g clip-path="url(#pfc179baf15)">
     <use xlink:href="#C0_0_c6a66ad2a9" x="496.835911" y="346.631295" style="fill: #00ff29; stroke: #00ff29"/>
    </g>
    <g clip-path="url(#pfc179baf15)">
     <use xlink:href="#C0_0_c6a66ad2a9" x="439.789155" y="420.728167" style="fill: #00ff47; stroke: #00ff47"/>
    </g>
    <g clip-path="url(#pfc179baf15)">
     <use xlink:href="#C0_0_c6a66ad2a9" x="105.113644" y="278.453398" style="fill: #00ff66; stroke: #00ff66"/>
    </g>
    <g clip-path="url(#pfc179baf15)">
     <use xlink:href="#C0_0_c6a66ad2a9" x="92.290909" y="281.996716" style="fill: #00ff85; stroke: #00ff85"/>
    </g>
    <g clip-path="url(#pfc179baf15)">
     <use xlink:href="#C0_0_c6a66ad2a9" x="141.852453" y="229.909685" style="fill: #00ffa3; stroke: #00ffa3"/>
    </g>
    <g clip-path="url(#pfc179baf15)">
     <use xlink:href="#C0_0_c6a66ad2a9" x="123.683078" y="228.766662" style="fill: #00ffc2; stroke: #00ffc2"/>
    </g>
    <g clip-path="url(#pfc179baf15)">
     <use xlink:href="#C0_0_c6a66ad2a9" x="119.158801" y="270.927807" style="fill: #00ffe0; stroke: #00ffe0"/>
    </g>
    <g clip-path="url(#pfc179baf15)">
     <use xlink:href="#C0_0_c6a66ad2a9" x="106.779284" y="240.909843" style="fill: #00ffff; stroke: #00ffff"/>
    </g>
    <g clip-path="url(#pfc179baf15)">
     <use xlink:href="#C0_0_c6a66ad2a9" x="129.317199" y="227.278416" style="fill: #00e0ff; stroke: #00e0ff"/>
    </g>
    <g clip-path="url(#pfc179baf15)">
     <use xlink:href="#C0_0_c6a66ad2a9" x="116.574353" y="281.885031" style="fill: #00c2ff; stroke: #00c2ff"/>
    </g>
    <g clip-path="url(#pfc179baf15)">
     <use xlink:href="#C0_0_c6a66ad2a9" x="113.037791" y="242.69092" style="fill: #00a3ff; stroke: #00a3ff"/>
    </g>
    <g clip-path="url(#pfc179baf15)">
     <use xlink:href="#C0_0_c6a66ad2a9" x="102.667007" y="246.66475" style="fill: #0085ff; stroke: #0085ff"/>
    </g>
    <g clip-path="url(#pfc179baf15)">
     <use xlink:href="#C0_0_c6a66ad2a9" x="271.47845" y="235.996751" style="fill: #0066ff; stroke: #0066ff"/>
    </g>
    <g clip-path="url(#pfc179baf15)">
     <use xlink:href="#C0_0_c6a66ad2a9" x="297.018394" y="304.291336" style="fill: #0047ff; stroke: #0047ff"/>
    </g>
    <g clip-path="url(#pfc179baf15)">
     <use xlink:href="#C0_0_c6a66ad2a9" x="311.451727" y="238.378245" style="fill: #0029ff; stroke: #0029ff"/>
    </g>
    <g clip-path="url(#pfc179baf15)">
     <use xlink:href="#C0_0_c6a66ad2a9" x="276.642396" y="325.282317" style="fill: #000aff; stroke: #000aff"/>
    </g>
    <g clip-path="url(#pfc179baf15)">
     <use xlink:href="#C0_0_c6a66ad2a9" x="270.255784" y="272.936582" style="fill: #1400ff; stroke: #1400ff"/>
    </g>
    <g clip-path="url(#pfc179baf15)">
     <use xlink:href="#C0_0_c6a66ad2a9" x="295.584182" y="230.477141" style="fill: #3300ff; stroke: #3300ff"/>
    </g>
    <g clip-path="url(#pfc179baf15)">
     <use xlink:href="#C0_0_c6a66ad2a9" x="252.463013" y="287.073838" style="fill: #5200ff; stroke: #5200ff"/>
    </g>
    <g clip-path="url(#pfc179baf15)">
     <use xlink:href="#C0_0_c6a66ad2a9" x="303.382953" y="280.016302" style="fill: #7000ff; stroke: #7000ff"/>
    </g>
    <g clip-path="url(#pfc179baf15)">
     <use xlink:href="#C0_0_c6a66ad2a9" x="335.966439" y="236.558546" style="fill: #8f00ff; stroke: #8f00ff"/>
    </g>
    <g clip-path="url(#pfc179baf15)">
     <use xlink:href="#C0_0_c6a66ad2a9" x="323.501687" y="248.120852" style="fill: #ad00ff; stroke: #ad00ff"/>
    </g>
    <g clip-path="url(#pfc179baf15)">
     <use xlink:href="#C0_0_c6a66ad2a9" x="194.614382" y="478.52043" style="fill: #cc00ff; stroke: #cc00ff"/>
    </g>
    <g clip-path="url(#pfc179baf15)">
     <use xlink:href="#C0_0_c6a66ad2a9" x="283.767901" y="466.117785" style="fill: #eb00ff; stroke: #eb00ff"/>
    </g>
    <g clip-path="url(#pfc179baf15)">
     <use xlink:href="#C0_0_c6a66ad2a9" x="212.205106" y="462.718543" style="fill: #ff00f5; stroke: #ff00f5"/>
    </g>
    <g clip-path="url(#pfc179baf15)">
     <use xlink:href="#C0_0_c6a66ad2a9" x="241.252642" y="457.418107" style="fill: #ff00d6; stroke: #ff00d6"/>
    </g>
    <g clip-path="url(#pfc179baf15)">
     <use xlink:href="#C0_0_c6a66ad2a9" x="211.454587" y="436.236557" style="fill: #ff00b8; stroke: #ff00b8"/>
    </g>
    <g clip-path="url(#pfc179baf15)">
     <use xlink:href="#C0_0_c6a66ad2a9" x="221.166279" y="469.404123" style="fill: #ff0099; stroke: #ff0099"/>
    </g>
    <g clip-path="url(#pfc179baf15)">
     <use xlink:href="#C0_0_c6a66ad2a9" x="252.963366" y="443.94994" style="fill: #ff007a; stroke: #ff007a"/>
    </g>
    <g clip-path="url(#pfc179baf15)">
     <use xlink:href="#C0_0_c6a66ad2a9" x="271.285422" y="478.077583" style="fill: #ff005c; stroke: #ff005c"/>
    </g>
    <g clip-path="url(#pfc179baf15)">
     <use xlink:href="#C0_0_c6a66ad2a9" x="257.488265" y="433.184808" style="fill: #ff003d; stroke: #ff003d"/>
    </g>
    <g clip-path="url(#pfc179baf15)">
     <use xlink:href="#C0_0_c6a66ad2a9" x="194.233517" y="469.574262" style="fill: #ff001f; stroke: #ff001f"/>
    </g>
   </g>
   <g id="PathCollection_2"/>
   <g id="PathCollection_3">
    <path d="M 292.578712 136.451567 
L 300.324678 128.7056 
M 292.578712 128.7056 
L 300.324678 136.451567 
" clip-path="url(#pfc179baf15)" style="fill: #ff0000; stroke: #ff0000; stroke-width: 1.5"/>
    <path d="M 346.682692 122.594658 
L 354.428659 114.848691 
M 346.682692 114.848691 
L 354.428659 122.594658 
" clip-path="url(#pfc179baf15)" style="fill: #ff1f00; stroke: #ff1f00; stroke-width: 1.5"/>
    <path d="M 336.873611 173.41448 
L 344.619578 165.668513 
M 336.873611 165.668513 
L 344.619578 173.41448 
" clip-path="url(#pfc179baf15)" style="fill: #ff3d00; stroke: #ff3d00; stroke-width: 1.5"/>
    <path d="M 308.916202 99.537774 
L 316.662168 91.791808 
M 308.916202 91.791808 
L 316.662168 99.537774 
" clip-path="url(#pfc179baf15)" style="fill: #ff5c00; stroke: #ff5c00; stroke-width: 1.5"/>
    <path d="M 340.594698 138.181408 
L 348.340665 130.435441 
M 340.594698 130.435441 
L 348.340665 138.181408 
" clip-path="url(#pfc179baf15)" style="fill: #ff7a00; stroke: #ff7a00; stroke-width: 1.5"/>
    <path d="M 357.967721 140.7173 
L 365.713688 132.971333 
M 357.967721 132.971333 
L 365.713688 140.7173 
" clip-path="url(#pfc179baf15)" style="fill: #ff9900; stroke: #ff9900; stroke-width: 1.5"/>
    <path d="M 347.640793 109.135639 
L 355.38676 101.389672 
M 347.640793 101.389672 
L 355.38676 109.135639 
" clip-path="url(#pfc179baf15)" style="fill: #ffb800; stroke: #ffb800; stroke-width: 1.5"/>
    <path d="M 369.54316 136.412713 
L 377.289127 128.666746 
M 369.54316 128.666746 
L 377.289127 136.412713 
" clip-path="url(#pfc179baf15)" style="fill: #ffd600; stroke: #ffd600; stroke-width: 1.5"/>
    <path d="M 306.439842 156.468926 
L 314.185808 148.72296 
M 306.439842 148.72296 
L 314.185808 156.468926 
" clip-path="url(#pfc179baf15)" style="fill: #fff500; stroke: #fff500; stroke-width: 1.5"/>
    <path d="M 301.766203 116.552737 
L 309.51217 108.80677 
M 301.766203 108.80677 
L 309.51217 116.552737 
" clip-path="url(#pfc179baf15)" style="fill: #ebff00; stroke: #ebff00; stroke-width: 1.5"/>
    <path d="M 461.760113 392.424245 
L 469.50608 384.678278 
M 461.760113 384.678278 
L 469.50608 392.424245 
" clip-path="url(#pfc179baf15)" style="fill: #ccff00; stroke: #ccff00; stroke-width: 1.5"/>
    <path d="M 472.804746 345.972227 
L 480.550713 338.226261 
M 472.804746 338.226261 
L 480.550713 345.972227 
" clip-path="url(#pfc179baf15)" style="fill: #adff00; stroke: #adff00; stroke-width: 1.5"/>
    <path d="M 481.5766 343.713432 
L 489.322567 335.967466 
M 481.5766 335.967466 
L 489.322567 343.713432 
" clip-path="url(#pfc179baf15)" style="fill: #8fff00; stroke: #8fff00; stroke-width: 1.5"/>
    <path d="M 468.358087 353.636376 
L 476.104054 345.89041 
M 468.358087 345.89041 
L 476.104054 353.636376 
" clip-path="url(#pfc179baf15)" style="fill: #70ff00; stroke: #70ff00; stroke-width: 1.5"/>
    <path d="M 444.407297 379.825978 
L 452.153264 372.080011 
M 444.407297 372.080011 
L 452.153264 379.825978 
" clip-path="url(#pfc179baf15)" style="fill: #52ff00; stroke: #52ff00; stroke-width: 1.5"/>
    <path d="M 477.224041 387.420906 
L 484.970008 379.674939 
M 477.224041 379.674939 
L 484.970008 387.420906 
" clip-path="url(#pfc179baf15)" style="fill: #33ff00; stroke: #33ff00; stroke-width: 1.5"/>
    <path d="M 493.164634 345.426041 
L 500.910601 337.680074 
M 493.164634 337.680074 
L 500.910601 345.426041 
" clip-path="url(#pfc179baf15)" style="fill: #14ff00; stroke: #14ff00; stroke-width: 1.5"/>
    <path d="M 450.126659 419.65842 
L 457.872626 411.912454 
M 450.126659 411.912454 
L 457.872626 419.65842 
" clip-path="url(#pfc179baf15)" style="fill: #00ff0a; stroke: #00ff0a; stroke-width: 1.5"/>
    <path d="M 459.764066 398.447173 
L 467.510033 390.701206 
M 459.764066 390.701206 
L 467.510033 398.447173 
" clip-path="url(#pfc179baf15)" style="fill: #00ff29; stroke: #00ff29; stroke-width: 1.5"/>
    <path d="M 464.819155 394.859735 
L 472.565122 387.113768 
M 464.819155 387.113768 
L 472.565122 394.859735 
" clip-path="url(#pfc179baf15)" style="fill: #00ff47; stroke: #00ff47; stroke-width: 1.5"/>
    <path d="M 123.675784 239.461389 
L 131.42175 231.715423 
M 123.675784 231.715423 
L 131.42175 239.461389 
" clip-path="url(#pfc179baf15)" style="fill: #00ff66; stroke: #00ff66; stroke-width: 1.5"/>
    <path d="M 102.475564 255.85336 
L 110.221531 248.107393 
M 102.475564 248.107393 
L 110.221531 255.85336 
" clip-path="url(#pfc179baf15)" style="fill: #00ff85; stroke: #00ff85; stroke-width: 1.5"/>
    <path d="M 108.472076 280.111717 
L 116.218043 272.36575 
M 108.472076 272.36575 
L 116.218043 280.111717 
" clip-path="url(#pfc179baf15)" style="fill: #00ffa3; stroke: #00ffa3; stroke-width: 1.5"/>
    <path d="M 113.090315 239.094438 
L 120.836282 231.348471 
M 113.090315 231.348471 
L 120.836282 239.094438 
" clip-path="url(#pfc179baf15)" style="fill: #00ffc2; stroke: #00ffc2; stroke-width: 1.5"/>
    <path d="M 121.348484 254.057995 
L 129.094451 246.312028 
M 121.348484 246.312028 
L 129.094451 254.057995 
" clip-path="url(#pfc179baf15)" style="fill: #00ffe0; stroke: #00ffe0; stroke-width: 1.5"/>
    <path d="M 94.268078 303.042397 
L 102.014045 295.29643 
M 94.268078 295.29643 
L 102.014045 303.042397 
" clip-path="url(#pfc179baf15)" style="fill: #00ffff; stroke: #00ffff; stroke-width: 1.5"/>
    <path d="M 101.469248 298.712308 
L 109.215215 290.966341 
M 101.469248 290.966341 
L 109.215215 298.712308 
" clip-path="url(#pfc179baf15)" style="fill: #00e0ff; stroke: #00e0ff; stroke-width: 1.5"/>
    <path d="M 104.902042 266.60826 
L 112.648008 258.862293 
M 104.902042 258.862293 
L 112.648008 266.60826 
" clip-path="url(#pfc179baf15)" style="fill: #00c2ff; stroke: #00c2ff; stroke-width: 1.5"/>
    <path d="M 119.159166 236.823968 
L 126.905133 229.078001 
M 119.159166 229.078001 
L 126.905133 236.823968 
" clip-path="url(#pfc179baf15)" style="fill: #00a3ff; stroke: #00a3ff; stroke-width: 1.5"/>
    <path d="M 105.361397 215.796705 
L 113.107364 208.050738 
M 105.361397 208.050738 
L 113.107364 215.796705 
" clip-path="url(#pfc179baf15)" style="fill: #0085ff; stroke: #0085ff; stroke-width: 1.5"/>
    <path d="M 285.398644 285.301516 
L 293.144611 277.555549 
M 285.398644 277.555549 
L 293.144611 285.301516 
" clip-path="url(#pfc179baf15)" style="fill: #0066ff; stroke: #0066ff; stroke-width: 1.5"/>
    <path d="M 282.070399 306.5563 
L 289.816366 298.810333 
M 282.070399 298.810333 
L 289.816366 306.5563 
" clip-path="url(#pfc179baf15)" style="fill: #0047ff; stroke: #0047ff; stroke-width: 1.5"/>
    <path d="M 314.529887 229.735497 
L 322.275853 221.98953 
M 314.529887 221.98953 
L 322.275853 229.735497 
" clip-path="url(#pfc179baf15)" style="fill: #0029ff; stroke: #0029ff; stroke-width: 1.5"/>
    <path d="M 261.854678 326.711671 
L 269.600644 318.965704 
M 261.854678 318.965704 
L 269.600644 326.711671 
" clip-path="url(#pfc179baf15)" style="fill: #000aff; stroke: #000aff; stroke-width: 1.5"/>
    <path d="M 294.689228 265.398115 
L 302.435194 257.652149 
M 294.689228 257.652149 
L 302.435194 265.398115 
" clip-path="url(#pfc179baf15)" style="fill: #1400ff; stroke: #1400ff; stroke-width: 1.5"/>
    <path d="M 285.268067 212.85169 
L 293.014034 205.105723 
M 285.268067 205.105723 
L 293.014034 212.85169 
" clip-path="url(#pfc179baf15)" style="fill: #3300ff; stroke: #3300ff; stroke-width: 1.5"/>
    <path d="M 284.986685 231.06728 
L 292.732651 223.321314 
M 284.986685 223.321314 
L 292.732651 231.06728 
" clip-path="url(#pfc179baf15)" style="fill: #5200ff; stroke: #5200ff; stroke-width: 1.5"/>
    <path d="M 337.829179 274.049925 
L 345.575145 266.303959 
M 337.829179 266.303959 
L 345.575145 274.049925 
" clip-path="url(#pfc179baf15)" style="fill: #7000ff; stroke: #7000ff; stroke-width: 1.5"/>
    <path d="M 311.245005 254.229015 
L 318.990972 246.483049 
M 311.245005 246.483049 
L 318.990972 254.229015 
" clip-path="url(#pfc179baf15)" style="fill: #8f00ff; stroke: #8f00ff; stroke-width: 1.5"/>
    <path d="M 260.099687 280.599653 
L 267.845654 272.853686 
M 260.099687 272.853686 
L 267.845654 280.599653 
" clip-path="url(#pfc179baf15)" style="fill: #ad00ff; stroke: #ad00ff; stroke-width: 1.5"/>
    <path d="M 233.188562 439.142501 
L 240.934528 431.396535 
M 233.188562 431.396535 
L 240.934528 439.142501 
" clip-path="url(#pfc179baf15)" style="fill: #cc00ff; stroke: #cc00ff; stroke-width: 1.5"/>
    <path d="M 245.111029 476.991149 
L 252.856996 469.245183 
M 245.111029 469.245183 
L 252.856996 476.991149 
" clip-path="url(#pfc179baf15)" style="fill: #eb00ff; stroke: #eb00ff; stroke-width: 1.5"/>
    <path d="M 191.728151 456.514701 
L 199.474118 448.768734 
M 191.728151 448.768734 
L 199.474118 456.514701 
" clip-path="url(#pfc179baf15)" style="fill: #ff00f5; stroke: #ff00f5; stroke-width: 1.5"/>
    <path d="M 222.349946 496.352983 
L 230.095913 488.607017 
M 222.349946 488.607017 
L 230.095913 496.352983 
" clip-path="url(#pfc179baf15)" style="fill: #ff00d6; stroke: #ff00d6; stroke-width: 1.5"/>
    <path d="M 200.229253 469.066081 
L 207.97522 461.320115 
M 200.229253 461.320115 
L 207.97522 469.066081 
" clip-path="url(#pfc179baf15)" style="fill: #ff00b8; stroke: #ff00b8; stroke-width: 1.5"/>
    <path d="M 242.215047 461.175654 
L 249.961014 453.429688 
M 242.215047 453.429688 
L 249.961014 461.175654 
" clip-path="url(#pfc179baf15)" style="fill: #ff0099; stroke: #ff0099; stroke-width: 1.5"/>
    <path d="M 266.653337 459.26009 
L 274.399304 451.514123 
M 266.653337 451.514123 
L 274.399304 459.26009 
" clip-path="url(#pfc179baf15)" style="fill: #ff007a; stroke: #ff007a; stroke-width: 1.5"/>
    <path d="M 253.677577 461.312281 
L 261.423544 453.566314 
M 253.677577 453.566314 
L 261.423544 461.312281 
" clip-path="url(#pfc179baf15)" style="fill: #ff005c; stroke: #ff005c; stroke-width: 1.5"/>
    <path d="M 249.601468 439.784536 
L 257.347435 432.038569 
M 249.601468 432.038569 
L 257.347435 439.784536 
" clip-path="url(#pfc179baf15)" style="fill: #ff003d; stroke: #ff003d; stroke-width: 1.5"/>
    <path d="M 209.026336 484.985983 
L 216.772303 477.240017 
M 209.026336 477.240017 
L 216.772303 484.985983 
" clip-path="url(#pfc179baf15)" style="fill: #ff001f; stroke: #ff001f; stroke-width: 1.5"/>
   </g>
   <g id="PathCollection_4"/>
   <g id="patch_3">
    <path d="M 72 512.64 
L 72 69.12 
" style="fill: none; stroke: #000000; stroke-width: 0.8; stroke-linejoin: miter; stroke-linecap: square"/>
   </g>
   <g id="patch_4">
    <path d="M 518.4 512.64 
L 518.4 69.12 
" style="fill: none; stroke: #000000; stroke-width: 0.8; stroke-linejoin: miter; stroke-linecap: square"/>
   </g>
   <g id="patch_5">
    <path d="M 72 512.64 
L 518.4 512.64 
" style="fill: none; stroke: #000000; stroke-width: 0.8; stroke-linejoin: miter; stroke-linecap: square"/>
   </g>
   <g id="patch_6">
    <path d="M 72 69.12 
L 518.4 69.12 
" style="fill: none; stroke: #000000; stroke-width: 0.8; stroke-linejoin: miter; stroke-linecap: square"/>
   </g>
   <g id="legend_1">
    <g id="patch_7">
     <path d="M 86 143.8325 
L 223.603125 143.8325 
Q 227.603125 143.8325 227.603125 139.8325 
L 227.603125 83.12 
Q 227.603125 79.12 223.603125 79.12 
L 86 79.12 
Q 82 79.12 82 83.12 
L 82 139.8325 
Q 82 143.8325 86 143.8325 
z
" style="fill: #ffffff; opacity: 0.8; stroke: #cccccc; stroke-linejoin: miter"/>
    </g>
    <g id="PathCollection_5">
     <defs>
      <path id="m412f3977b0" d="M 0 3.872983 
C 1.027127 3.872983 2.012324 3.464901 2.738613 2.738613 
C 3.464901 2.012324 3.872983 1.027127 3.872983 0 
C 3.872983 -1.027127 3.464901 -2.012324 2.738613 -2.738613 
C 2.012324 -3.464901 1.027127 -3.872983 0 -3.872983 
C -1.027127 -3.872983 -2.012324 -3.464901 -2.738613 -2.738613 
C -3.464901 -2.012324 -3.872983 -1.027127 -3.872983 0 
C -3.872983 1.027127 -3.464901 2.012324 -2.738613 2.738613 
C -2.012324 3.464901 -1.027127 3.872983 0 3.872983 
z
" style="stroke: #000000"/>
     </defs>
     <g>
      <use xlink:href="#m412f3977b0" x="110" y="97.066875" style="stroke: #000000"/>
     </g>
    </g>
    <g id="text_1">
     <!-- Group1 -->
     <g transform="translate(146 102.316875) scale(0.2 -0.2)">
      <defs>
       <path id="DejaVuSans-47" d="M 3809 666 
L 3809 1919 
L 2778 1919 
L 2778 2438 
L 4434 2438 
L 4434 434 
Q 4069 175 3628 42 
Q 3188 -91 2688 -91 
Q 1594 -91 976 548 
Q 359 1188 359 2328 
Q 359 3472 976 4111 
Q 1594 4750 2688 4750 
Q 3144 4750 3555 4637 
Q 3966 4525 4313 4306 
L 4313 3634 
Q 3963 3931 3569 4081 
Q 3175 4231 2741 4231 
Q 1884 4231 1454 3753 
Q 1025 3275 1025 2328 
Q 1025 1384 1454 906 
Q 1884 428 2741 428 
Q 3075 428 3337 486 
Q 3600 544 3809 666 
z
" transform="scale(0.015625)"/>
       <path id="DejaVuSans-72" d="M 2631 2963 
Q 2534 3019 2420 3045 
Q 2306 3072 2169 3072 
Q 1681 3072 1420 2755 
Q 1159 2438 1159 1844 
L 1159 0 
L 581 0 
L 581 3500 
L 1159 3500 
L 1159 2956 
Q 1341 3275 1631 3429 
Q 1922 3584 2338 3584 
Q 2397 3584 2469 3576 
Q 2541 3569 2628 3553 
L 2631 2963 
z
" transform="scale(0.015625)"/>
       <path id="DejaVuSans-6f" d="M 1959 3097 
Q 1497 3097 1228 2736 
Q 959 2375 959 1747 
Q 959 1119 1226 758 
Q 1494 397 1959 397 
Q 2419 397 2687 759 
Q 2956 1122 2956 1747 
Q 2956 2369 2687 2733 
Q 2419 3097 1959 3097 
z
M 1959 3584 
Q 2709 3584 3137 3096 
Q 3566 2609 3566 1747 
Q 3566 888 3137 398 
Q 2709 -91 1959 -91 
Q 1206 -91 779 398 
Q 353 888 353 1747 
Q 353 2609 779 3096 
Q 1206 3584 1959 3584 
z
" transform="scale(0.015625)"/>
       <path id="DejaVuSans-75" d="M 544 1381 
L 544 3500 
L 1119 3500 
L 1119 1403 
Q 1119 906 1312 657 
Q 1506 409 1894 409 
Q 2359 409 2629 706 
Q 2900 1003 2900 1516 
L 2900 3500 
L 3475 3500 
L 3475 0 
L 2900 0 
L 2900 538 
Q 2691 219 2414 64 
Q 2138 -91 1772 -91 
Q 1169 -91 856 284 
Q 544 659 544 1381 
z
M 1991 3584 
L 1991 3584 
z
" transform="scale(0.015625)"/>
       <path id="DejaVuSans-70" d="M 1159 525 
L 1159 -1331 
L 581 -1331 
L 581 3500 
L 1159 3500 
L 1159 2969 
Q 1341 3281 1617 3432 
Q 1894 3584 2278 3584 
Q 2916 3584 3314 3078 
Q 3713 2572 3713 1747 
Q 3713 922 3314 415 
Q 2916 -91 2278 -91 
Q 1894 -91 1617 61 
Q 1341 213 1159 525 
z
M 3116 1747 
Q 3116 2381 2855 2742 
Q 2594 3103 2138 3103 
Q 1681 3103 1420 2742 
Q 1159 2381 1159 1747 
Q 1159 1113 1420 752 
Q 1681 391 2138 391 
Q 2594 391 2855 752 
Q 3116 1113 3116 1747 
z
" transform="scale(0.015625)"/>
       <path id="DejaVuSans-31" d="M 794 531 
L 1825 531 
L 1825 4091 
L 703 3866 
L 703 4441 
L 1819 4666 
L 2450 4666 
L 2450 531 
L 3481 531 
L 3481 0 
L 794 0 
L 794 531 
z
" transform="scale(0.015625)"/>
      </defs>
      <use xlink:href="#DejaVuSans-47"/>
      <use xlink:href="#DejaVuSans-72" x="77.490234"/>
      <use xlink:href="#DejaVuSans-6f" x="116.353516"/>
      <use xlink:href="#DejaVuSans-75" x="177.535156"/>
      <use xlink:href="#DejaVuSans-70" x="240.914062"/>
      <use xlink:href="#DejaVuSans-31" x="304.390625"/>
     </g>
    </g>
    <g id="PathCollection_6">
     <defs>
      <path id="m0fc7b3435e" d="M -3.872983 3.872983 
L 3.872983 -3.872983 
M -3.872983 -3.872983 
L 3.872983 3.872983 
" style="stroke: #000000; stroke-width: 1.5"/>
     </defs>
     <g>
      <use xlink:href="#m0fc7b3435e" x="110" y="126.423125" style="stroke: #000000; stroke-width: 1.5"/>
     </g>
    </g>
    <g id="text_2">
     <!-- Group2 -->
     <g transform="translate(146 131.673125) scale(0.2 -0.2)">
      <defs>
       <path id="DejaVuSans-32" d="M 1228 531 
L 3431 531 
L 3431 0 
L 469 0 
L 469 531 
Q 828 903 1448 1529 
Q 2069 2156 2228 2338 
Q 2531 2678 2651 2914 
Q 2772 3150 2772 3378 
Q 2772 3750 2511 3984 
Q 2250 4219 1831 4219 
Q 1534 4219 1204 4116 
Q 875 4013 500 3803 
L 500 4441 
Q 881 4594 1212 4672 
Q 1544 4750 1819 4750 
Q 2544 4750 2975 4387 
Q 3406 4025 3406 3419 
Q 3406 3131 3298 2873 
Q 3191 2616 2906 2266 
Q 2828 2175 2409 1742 
Q 1991 1309 1228 531 
z
" transform="scale(0.015625)"/>
      </defs>
      <use xlink:href="#DejaVuSans-47"/>
      <use xlink:href="#DejaVuSans-72" x="77.490234"/>
      <use xlink:href="#DejaVuSans-6f" x="116.353516"/>
      <use xlink:href="#DejaVuSans-75" x="177.535156"/>
      <use xlink:href="#DejaVuSans-70" x="240.914062"/>
      <use xlink:href="#DejaVuSans-32" x="304.390625"/>
     </g>
    </g>
   </g>
  </g>
 </g>
 <defs>
  <clipPath id="pfc179baf15">
   <rect x="72" y="69.12" width="446.4" height="443.52"/>
  </clipPath>
 </defs>
</svg>
